<svg width="238" height="40" viewBox="0 0 238 40" fill="none" xmlns="http://www.w3.org/2000/svg">
<path d="M34.1422 5.85781C30.3647 2.08031 25.3422 0 20 0C14.6578 0 9.63531 2.08031 5.85781 5.85781C2.08031 9.63531 0 14.6578 0 20C0 25.3422 2.08039 30.3646 5.85781 34.1422C9.63523 37.9198 14.6578 40 20 40C25.3422 40 30.3647 37.9197 34.1422 34.1422C37.9197 30.3647 40 25.3422 40 20C40 14.6578 37.9196 9.63539 34.1422 5.85781Z" fill="#23CE6B"/>
<g clip-path="url(#clip0_35212_209)">
<path d="M20.5714 8V33.1429" stroke="white" stroke-width="2" stroke-linecap="round" stroke-linejoin="round"/>
<path d="M26.2857 12.5714H17.7143C16.6534 12.5714 15.636 12.9929 14.8859 13.743C14.1357 14.4931 13.7143 15.5106 13.7143 16.5714C13.7143 17.6323 14.1357 18.6497 14.8859 19.3999C15.636 20.15 16.6534 20.5714 17.7143 20.5714H23.4286C24.4894 20.5714 25.5068 20.9929 26.257 21.743C27.0071 22.4931 27.4286 23.5106 27.4286 24.5714C27.4286 25.6323 27.0071 26.6497 26.257 27.3999C25.5068 28.15 24.4894 28.5714 23.4286 28.5714H13.7143" stroke="white" stroke-width="2" stroke-linecap="round" stroke-linejoin="round"/>
</g>
<path d="M72.23 20.124C73.0953 20.2853 73.8067 20.718 74.364 21.422C74.9213 22.126 75.2 22.9327 75.2 23.842C75.2 24.6633 74.9947 25.3893 74.584 26.02C74.188 26.636 73.6087 27.12 72.846 27.472C72.0833 27.824 71.1813 28 70.14 28H63.518V12.644H69.854C70.8953 12.644 71.79 12.8127 72.538 13.15C73.3007 13.4873 73.8727 13.9567 74.254 14.558C74.65 15.1593 74.848 15.8413 74.848 16.604C74.848 17.4987 74.606 18.2467 74.122 18.848C73.6527 19.4493 73.022 19.8747 72.23 20.124ZM66.598 18.98H69.414C70.1473 18.98 70.712 18.8187 71.108 18.496C71.504 18.1587 71.702 17.682 71.702 17.066C71.702 16.45 71.504 15.9733 71.108 15.636C70.712 15.2987 70.1473 15.13 69.414 15.13H66.598V18.98ZM69.7 25.492C70.448 25.492 71.0273 25.316 71.438 24.964C71.8633 24.612 72.076 24.1133 72.076 23.468C72.076 22.808 71.856 22.2947 71.416 21.928C70.976 21.5467 70.382 21.356 69.634 21.356H66.598V25.492H69.7ZM76.8627 21.862C76.8627 20.63 77.1047 19.5373 77.5887 18.584C78.0874 17.6307 78.7547 16.8973 79.5907 16.384C80.4414 15.8707 81.3874 15.614 82.4287 15.614C83.3381 15.614 84.1301 15.7973 84.8047 16.164C85.4941 16.5307 86.0441 16.9927 86.4547 17.55V15.812H89.5567V28H86.4547V26.218C86.0587 26.79 85.5087 27.2667 84.8047 27.648C84.1154 28.0147 83.3161 28.198 82.4067 28.198C81.3801 28.198 80.4414 27.934 79.5907 27.406C78.7547 26.878 78.0874 26.1373 77.5887 25.184C77.1047 24.216 76.8627 23.1087 76.8627 21.862ZM86.4547 21.906C86.4547 21.158 86.3081 20.52 86.0147 19.992C85.7214 19.4493 85.3254 19.0387 84.8267 18.76C84.3281 18.4667 83.7927 18.32 83.2207 18.32C82.6487 18.32 82.1207 18.4593 81.6367 18.738C81.1527 19.0167 80.7567 19.4273 80.4487 19.97C80.1554 20.498 80.0087 21.1287 80.0087 21.862C80.0087 22.5953 80.1554 23.2407 80.4487 23.798C80.7567 24.3407 81.1527 24.7587 81.6367 25.052C82.1354 25.3453 82.6634 25.492 83.2207 25.492C83.7927 25.492 84.3281 25.3527 84.8267 25.074C85.3254 24.7807 85.7214 24.37 86.0147 23.842C86.3081 23.2993 86.4547 22.654 86.4547 21.906ZM95.6449 11.72V28H92.5649V11.72H95.6449ZM97.8959 21.862C97.8959 20.63 98.1379 19.5373 98.6219 18.584C99.1206 17.6307 99.7879 16.8973 100.624 16.384C101.475 15.8707 102.421 15.614 103.462 15.614C104.371 15.614 105.163 15.7973 105.838 16.164C106.527 16.5307 107.077 16.9927 107.488 17.55V15.812H110.59V28H107.488V26.218C107.092 26.79 106.542 27.2667 105.838 27.648C105.149 28.0147 104.349 28.198 103.44 28.198C102.413 28.198 101.475 27.934 100.624 27.406C99.7879 26.878 99.1206 26.1373 98.6219 25.184C98.1379 24.216 97.8959 23.1087 97.8959 21.862ZM107.488 21.906C107.488 21.158 107.341 20.52 107.048 19.992C106.755 19.4493 106.359 19.0387 105.86 18.76C105.361 18.4667 104.826 18.32 104.254 18.32C103.682 18.32 103.154 18.4593 102.67 18.738C102.186 19.0167 101.79 19.4273 101.482 19.97C101.189 20.498 101.042 21.1287 101.042 21.862C101.042 22.5953 101.189 23.2407 101.482 23.798C101.79 24.3407 102.186 24.7587 102.67 25.052C103.169 25.3453 103.697 25.492 104.254 25.492C104.826 25.492 105.361 25.3527 105.86 25.074C106.359 24.7807 106.755 24.37 107.048 23.842C107.341 23.2993 107.488 22.654 107.488 21.906ZM120.352 15.636C121.804 15.636 122.977 16.098 123.872 17.022C124.767 17.9313 125.214 19.2073 125.214 20.85V28H122.134V21.268C122.134 20.3 121.892 19.5593 121.408 19.046C120.924 18.518 120.264 18.254 119.428 18.254C118.577 18.254 117.903 18.518 117.404 19.046C116.92 19.5593 116.678 20.3 116.678 21.268V28H113.598V15.812H116.678V17.33C117.089 16.802 117.609 16.3913 118.24 16.098C118.885 15.79 119.589 15.636 120.352 15.636ZM127.351 21.906C127.351 20.6447 127.608 19.5447 128.121 18.606C128.634 17.6527 129.346 16.9193 130.255 16.406C131.164 15.878 132.206 15.614 133.379 15.614C134.89 15.614 136.136 15.9953 137.119 16.758C138.116 17.506 138.784 18.562 139.121 19.926H135.799C135.623 19.398 135.322 18.9873 134.897 18.694C134.486 18.386 133.973 18.232 133.357 18.232C132.477 18.232 131.78 18.5547 131.267 19.2C130.754 19.8307 130.497 20.7327 130.497 21.906C130.497 23.0647 130.754 23.9667 131.267 24.612C131.78 25.2427 132.477 25.558 133.357 25.558C134.604 25.558 135.418 25.0007 135.799 23.886H139.121C138.784 25.206 138.116 26.2547 137.119 27.032C136.122 27.8093 134.875 28.198 133.379 28.198C132.206 28.198 131.164 27.9413 130.255 27.428C129.346 26.9 128.634 26.1667 128.121 25.228C127.608 24.2747 127.351 23.1673 127.351 21.906ZM152.707 21.642C152.707 22.082 152.678 22.478 152.619 22.83H143.709C143.783 23.71 144.091 24.3993 144.633 24.898C145.176 25.3967 145.843 25.646 146.635 25.646C147.779 25.646 148.593 25.1547 149.077 24.172H152.399C152.047 25.3453 151.373 26.3133 150.375 27.076C149.378 27.824 148.153 28.198 146.701 28.198C145.528 28.198 144.472 27.9413 143.533 27.428C142.609 26.9 141.883 26.1593 141.355 25.206C140.842 24.2527 140.585 23.1527 140.585 21.906C140.585 20.6447 140.842 19.5373 141.355 18.584C141.869 17.6307 142.587 16.8973 143.511 16.384C144.435 15.8707 145.499 15.614 146.701 15.614C147.86 15.614 148.894 15.8633 149.803 16.362C150.727 16.8607 151.439 17.572 151.937 18.496C152.451 19.4053 152.707 20.454 152.707 21.642ZM149.517 20.762C149.503 19.97 149.217 19.3393 148.659 18.87C148.102 18.386 147.42 18.144 146.613 18.144C145.851 18.144 145.205 18.3787 144.677 18.848C144.164 19.3027 143.849 19.9407 143.731 20.762H149.517ZM175.334 15.636C176.83 15.636 178.032 16.098 178.942 17.022C179.866 17.9313 180.328 19.2073 180.328 20.85V28H177.248V21.268C177.248 20.3147 177.006 19.5887 176.522 19.09C176.038 18.5767 175.378 18.32 174.542 18.32C173.706 18.32 173.038 18.5767 172.54 19.09C172.056 19.5887 171.814 20.3147 171.814 21.268V28H168.734V21.268C168.734 20.3147 168.492 19.5887 168.008 19.09C167.524 18.5767 166.864 18.32 166.028 18.32C165.177 18.32 164.502 18.5767 164.004 19.09C163.52 19.5887 163.278 20.3147 163.278 21.268V28H160.198V15.812H163.278V17.286C163.674 16.7727 164.18 16.3693 164.796 16.076C165.426 15.7827 166.116 15.636 166.864 15.636C167.817 15.636 168.668 15.8413 169.416 16.252C170.164 16.648 170.743 17.22 171.154 17.968C171.55 17.264 172.122 16.6993 172.87 16.274C173.632 15.8487 174.454 15.636 175.334 15.636ZM188.662 28.198C187.489 28.198 186.433 27.9413 185.494 27.428C184.556 26.9 183.815 26.1593 183.272 25.206C182.744 24.2527 182.48 23.1527 182.48 21.906C182.48 20.6593 182.752 19.5593 183.294 18.606C183.852 17.6527 184.607 16.9193 185.56 16.406C186.514 15.878 187.577 15.614 188.75 15.614C189.924 15.614 190.987 15.878 191.94 16.406C192.894 16.9193 193.642 17.6527 194.184 18.606C194.742 19.5593 195.02 20.6593 195.02 21.906C195.02 23.1527 194.734 24.2527 194.162 25.206C193.605 26.1593 192.842 26.9 191.874 27.428C190.921 27.9413 189.85 28.198 188.662 28.198ZM188.662 25.514C189.22 25.514 189.74 25.382 190.224 25.118C190.723 24.8393 191.119 24.4287 191.412 23.886C191.706 23.3433 191.852 22.6833 191.852 21.906C191.852 20.7473 191.544 19.86 190.928 19.244C190.327 18.6133 189.586 18.298 188.706 18.298C187.826 18.298 187.086 18.6133 186.484 19.244C185.898 19.86 185.604 20.7473 185.604 21.906C185.604 23.0647 185.89 23.9593 186.462 24.59C187.049 25.206 187.782 25.514 188.662 25.514ZM204.034 15.636C205.486 15.636 206.659 16.098 207.554 17.022C208.448 17.9313 208.896 19.2073 208.896 20.85V28H205.816V21.268C205.816 20.3 205.574 19.5593 205.09 19.046C204.606 18.518 203.946 18.254 203.11 18.254C202.259 18.254 201.584 18.518 201.086 19.046C200.602 19.5593 200.36 20.3 200.36 21.268V28H197.28V15.812H200.36V17.33C200.77 16.802 201.291 16.3913 201.922 16.098C202.567 15.79 203.271 15.636 204.034 15.636ZM223.155 21.642C223.155 22.082 223.125 22.478 223.067 22.83H214.157C214.23 23.71 214.538 24.3993 215.081 24.898C215.623 25.3967 216.291 25.646 217.083 25.646C218.227 25.646 219.041 25.1547 219.525 24.172H222.847C222.495 25.3453 221.82 26.3133 220.823 27.076C219.825 27.824 218.601 28.198 217.149 28.198C215.975 28.198 214.919 27.9413 213.981 27.428C213.057 26.9 212.331 26.1593 211.803 25.206C211.289 24.2527 211.033 23.1527 211.033 21.906C211.033 20.6447 211.289 19.5373 211.803 18.584C212.316 17.6307 213.035 16.8973 213.959 16.384C214.883 15.8707 215.946 15.614 217.149 15.614C218.307 15.614 219.341 15.8633 220.251 16.362C221.175 16.8607 221.886 17.572 222.385 18.496C222.898 19.4053 223.155 20.454 223.155 21.642ZM219.965 20.762C219.95 19.97 219.664 19.3393 219.107 18.87C218.549 18.386 217.867 18.144 217.061 18.144C216.298 18.144 215.653 18.3787 215.125 18.848C214.611 19.3027 214.296 19.9407 214.179 20.762H219.965ZM237.063 15.812L229.517 33.764H226.239L228.879 27.692L223.995 15.812H227.449L230.595 24.326L233.785 15.812H237.063Z" fill="white"/>
<defs>
<clipPath id="clip0_35212_209">
<rect width="27.4286" height="27.4286" fill="white" transform="translate(6.85714 6.85714)"/>
</clipPath>
</defs>
</svg>
